<svg width="36" height="38" viewBox="0 0 36 38" fill="none" xmlns="http://www.w3.org/2000/svg">
<rect width="36" height="38" fill="#E5E5E5"/>
<rect width="1440" height="2794" transform="translate(-846 -403)" fill="white"/>
<rect x="-727" y="-49" width="1200" height="133" rx="5" fill="#F6F6F9"/>
<path d="M18 0.25C8.16275 0.25 0.1875 8.645 0.1875 19C0.1875 29.355 8.16275 37.75 18 37.75C27.8372 37.75 35.8125 29.355 35.8125 19C35.8125 8.645 27.8372 0.25 18 0.25ZM28.9155 30.49C27.4894 31.9906 25.7961 33.1803 23.9325 33.9911C22.069 34.8019 20.0719 35.2178 18.0554 35.215C9.56083 35.215 2.67333 27.9667 2.67333 19.0233C2.67333 10.08 9.55925 2.83167 18.0554 2.83167C26.55 2.83167 33.4375 10.08 33.4375 19.0233C33.4399 21.2258 33.0142 23.4055 32.1867 25.4283L32.2247 25.3233C31.4478 27.2532 30.3241 29.0069 28.9155 30.4883V30.49Z" fill="#15CE3D"/>
<path d="M10.2812 14.625H13.25V17.75H10.2812V14.625Z" fill="#15CE3D"/>
<path d="M22.75 14.625H25.7188V17.75H22.75V14.625Z" fill="#15CE3D"/>
<path d="M24.1069 23C23.6473 24.2157 22.8521 25.2585 21.8239 25.9938C20.7958 26.7291 19.5818 27.1231 18.3388 27.125H17.6612C16.425 27.1249 15.2171 26.7364 14.192 26.0093C13.1669 25.2821 12.3714 24.2493 11.9073 23.0433L11.8931 23L11.7981 22.75H9.23941L9.68749 23.9283C10.9922 27.295 14.0781 29.625 17.6817 29.625H18.3198C20.0303 29.6254 21.7021 29.0895 23.122 28.0856C24.5418 27.0817 25.6454 25.6553 26.2919 23.9883L26.3125 23.9283L26.7606 22.75H24.2019L24.1069 23Z" fill="#15CE3D"/>
</svg>
